# File created by Blade
# Date/Time:  Tue Jan 27 19:18:50 2015
#---------------------------------------------------------
:version 1.10
:name HOM
:units
  mass 1.0
  length 1.000000
  angle deg
:documentation
     Acclaim Skeleton File
:root
   axis xyz
   order TX TY TZ RX RY RZ
   position 0.000000 0.000000 0.000000
   orientation 0 0 0
:bonedata
   begin
      id 1
      name Spine_dum
      direction 0.000000 1.000000 0.000000
      length 6.116652
      axis 0.0 0.0 0.0 xyz
   end
   begin
      id 2
      name LeftUpLeg_dum
      direction 1.000000 0.000000 0.000000
      length 4.711765
      axis 0.0 0.0 0.0 xyz
   end
   begin
      id 3
      name RightUpLeg_dum
      direction -1.000000 0.000000 0.000000
      length 4.711765
      axis 0.0 0.0 0.0 xyz
   end
   begin
      id 4
      name Spine
      direction 0.000000 1.000000 0.000000
      length 0.000000
      axis 0.0 0.0 0.0 xyz
      dof rx ry rz
   end
   begin
      id 5
      name Spine_dum1
      direction 0.000000 1.000000 0.000000
      length 15.225563
      axis 0.0 0.0 0.0 xyz
   end
   begin
      id 6
      name Spine_dum2
      direction 0.000000 1.000000 0.000000
      length 8.977654
      axis 0.0 0.0 0.0 xyz
   end
   begin
      id 7
      name Spine_dum3
      direction 0.000000 1.000000 0.000000
      length 8.977654
      axis 0.0 0.0 0.0 xyz
   end
   begin
      id 8
      name Head
      direction 0.000000 1.000000 0.000000
      length 4.527550
      axis 0.0 0.0 0.0 xyz
      dof rx ry rz
   end
   begin
      id 9
      name LeftShoulder
      direction 1.000000 0.000000 0.000000
      length 7.110130
      axis 0.0 0.0 -90.0 xyz
      dof rx ry rz
   end
   begin
      id 10
      name LeftArm
      direction 1.000000 0.000000 0.000000
      length 10.398341
      axis 0.0 0.0 -90.0 xyz
      dof rx ry rz
   end
   begin
      id 11
      name LeftForeArm
      direction 1.000000 0.000000 0.000000
      length 8.888997
      axis 0.0 0.0 -90.0 xyz
      dof ry rz rx
   end
   begin
      id 12
      name LeftHand
      direction 0.000000 0.000000 0.000000
      length 0.000000
      axis 0.0 0.0 -90.0 xyz
      dof rx ry rz
   end
   begin
      id 13
      name LeftHand_dum1
      direction 0.000000 0.000000 0.000000
      length 0.000000
      axis 0.0 0.0 -90.0 xyz
   end
   begin
      id 14
      name LeftHand_dum2
      direction 1.000000 0.000000 0.000000
      length 3.937000
      axis 0.0 0.0 -90.0 xyz
   end
   begin
      id 15
      name LeftHandThumb1
      direction 0.000000 0.000000 1.000000
      length 3.937000
      axis 0.0 0.0 -90.0 xyz
      dof rx rz ry
   end
   begin
      id 16
      name RightShoulder
      direction -1.000000 0.000000 0.000000
      length 7.110130
      axis 0.0 0.0 90.0 xyz
      dof rx ry rz
   end
   begin
      id 17
      name RightArm
      direction -1.000000 0.000000 0.000000
      length 10.398341
      axis 0.0 0.0 90.0 xyz
      dof rx ry rz
   end
   begin
      id 18
      name RightForeArm
      direction -1.000000 0.000000 0.000000
      length 8.888997
      axis 0.0 0.0 90.0 xyz
      dof ry rz rx
   end
   begin
      id 19
      name RightHand
      direction 0.000000 0.000000 0.000000
      length 0.000000
      axis 0.0 0.0 90.0 xyz
      dof rx ry rz
   end
   begin
      id 20
      name RightHand_dum1
      direction 0.000000 0.000000 0.000000
      length 0.000000
      axis 0.0 0.0 90.0 xyz
   end
   begin
      id 21
      name RightHand_dum2
      direction -1.000000 0.000000 0.000000
      length 3.937000
      axis 0.0 0.0 90.0 xyz
   end
   begin
      id 22
      name RightHandThumb1
      direction 0.000000 0.000000 1.000000
      length 3.937000
      axis 0.0 0.0 90.0 xyz
      dof rx rz ry
   end
   begin
      id 23
      name LeftUpLeg
      direction 0.000000 -1.000000 0.000000
      length 15.510451
      axis 0.0 0.0 0.0 xyz
      dof rx ry rz
   end
   begin
      id 24
      name LeftLeg
      direction 0.000000 -1.000000 0.000000
      length 14.858061
      axis 0.0 0.0 0.0 xyz
      dof rx ry rz
   end
   begin
      id 25
      name LeftFoot
      direction 0.000000 -0.258819 0.965926
      length 5.128852
      axis 15.0 0.0 0.0 xyz
      dof rx ry rz
   end
   begin
      id 26
      name LeftToeBase
      direction 0.000000 0.000000 1.000000
      length 2.952750
      axis 0.0 0.0 0.0 xyz
      dof rx ry rz
   end
   begin
      id 27
      name RightUpLeg
      direction 0.000000 -1.000000 0.000000
      length 15.510451
      axis 0.0 0.0 0.0 xyz
      dof rx ry rz
   end
   begin
      id 28
      name RightLeg
      direction 0.000000 -1.000000 0.000000
      length 14.858061
      axis 0.0 0.0 0.0 xyz
      dof rx ry rz
   end
   begin
      id 29
      name RightFoot
      direction 0.000000 -0.258819 0.965926
      length 5.128852
      axis 15.0 0.0 0.0 xyz
      dof rx ry rz
   end
   begin
      id 30
      name RightToeBase
      direction 0.000000 0.000000 1.000000
      length 2.952750
      axis 0.0 0.0 0.0 xyz
      dof rx ry rz
   end
:hierarchy
   begin
      root Spine_dum LeftUpLeg_dum RightUpLeg_dum
      Spine_dum Spine
      LeftUpLeg_dum LeftUpLeg
      RightUpLeg_dum RightUpLeg
      Spine Spine_dum1 Spine_dum2 Spine_dum3
      Spine_dum1 Head
      Spine_dum2 LeftShoulder
      Spine_dum3 RightShoulder
      LeftShoulder LeftArm
      LeftArm LeftForeArm
      LeftForeArm LeftHand
      LeftHand LeftHand_dum1 LeftHand_dum2
      LeftHand_dum1 LeftHandThumb1
      RightShoulder RightArm
      RightArm RightForeArm
      RightForeArm RightHand
      RightHand RightHand_dum1 RightHand_dum2
      RightHand_dum1 RightHandThumb1
      LeftUpLeg LeftLeg
      LeftLeg LeftFoot
      LeftFoot LeftToeBase
      RightUpLeg RightLeg
      RightLeg RightFoot
      RightFoot RightToeBase
   end

# File created by Blade
# Date/Time:  Tue Jan 27 19:18:41 2015
# Frame Rate: 120.000 fps
#------------------------------------------------------
:FULLY-SPECIFIED
:DEGREES
1039
root 4.398764 32.314497 0.889762 -4.032621 -1.100994 0.233971
Spine -0.167234 17.003014 1.094361
Head 1.222160 -21.960932 2.596975
LeftShoulder -3.374023 -7.001304 25.115975
LeftArm -5.741150 45.515015 -104.823768
LeftForeArm 2.679018 -0.000000 15.534897
LeftHand 10.498087 -0.000000 -6.343360
LeftHandThumb1 -26.253704 0.000000 33.147579
RightShoulder -3.127031 17.457494 -44.378399
RightArm 65.889748 28.050279 108.523728
RightForeArm 23.017153 -0.000000 92.136739
RightHand 27.402867 -0.000000 -7.520323
RightHandThumb1 -24.326973 -0.000000 -32.862282
LeftUpLeg 10.846954 -0.664028 -1.620576
LeftLeg 1.997985 -0.000000 -0.000000
LeftFoot -19.059446 15.001378 -23.059468
LeftToeBase 16.276405 -0.000000 -0.000000
RightUpLeg 9.423963 -7.895614 0.377214
RightLeg 0.140527 -0.000000 -0.000000
RightFoot -11.605961 -12.618318 13.384444
RightToeBase 9.742869 -0.000000 -0.000000
1040
root 4.389762 32.314740 0.892370 -4.035480 -1.112560 0.237943
Spine -0.179504 17.012892 1.092871
Head 1.258301 -21.924151 2.561411
LeftShoulder -3.370790 -7.024154 25.135498
LeftArm -5.808927 45.566898 -104.874305
LeftForeArm 2.688814 -0.000000 15.585527
LeftHand 10.509368 -0.000000 -6.325536
LeftHandThumb1 -26.253704 0.000000 33.147579
RightShoulder -3.136571 17.477292 -44.378000
RightArm 65.848575 28.025221 108.508750
RightForeArm 23.006286 -0.000000 92.139893
RightHand 27.425729 -0.000000 -7.563986
RightHandThumb1 -24.326973 -0.000000 -32.862282
LeftUpLeg 10.851812 -0.669986 -1.612711
LeftLeg 2.004481 -0.000000 -0.000000
LeftFoot -19.062917 15.024713 -23.060635
LeftToeBase 16.216224 -0.000000 -0.000000
RightUpLeg 9.431375 -7.889060 0.389304
RightLeg 0.133454 -0.000000 -0.000000
RightFoot -11.598988 -12.630837 13.357930
RightToeBase 9.731486 -0.000000 -0.000000
1041
root 4.379917 32.314433 0.896708 -4.056121 -1.107363 0.231871
Spine -0.174823 17.009419 1.107534
Head 1.302795 -21.886069 2.520138
LeftShoulder -3.360359 -6.981487 25.145931
LeftArm -5.803648 45.679110 -104.886629
LeftForeArm 2.817536 -0.000000 15.654508
LeftHand 10.190537 -0.000000 -4.468420
LeftHandThumb1 -26.253704 0.000000 33.147579
RightShoulder -3.143617 17.478913 -44.382391
RightArm 65.819835 28.005050 108.500803
RightForeArm 22.983275 -0.000000 92.147310
RightHand 27.434870 -0.000000 -7.528082
RightHandThumb1 -24.326973 -0.000000 -32.862282
LeftUpLeg 10.881792 -0.645784 -1.583660
LeftLeg 2.001763 -0.000000 -0.000000
LeftFoot -19.065199 14.997463 -23.053277
LeftToeBase 16.329015 -0.000000 -0.000000
RightUpLeg 9.451281 -7.970653 0.394424
RightLeg 0.155344 -0.000000 -0.000000
RightFoot -11.594029 -12.552951 13.328582
RightToeBase 9.758601 -0.000000 -0.000000
1042
root 4.370748 32.314494 0.900114 -4.065660 -1.112521 0.233890
Spine -0.181629 17.010906 1.110141
Head 1.339357 -21.849940 2.476432
LeftShoulder -3.373754 -6.947291 25.157934
LeftArm -5.781919 45.700591 -104.853633
LeftForeArm 2.850770 -0.000000 15.712174
LeftHand 10.342607 -0.000000 -5.068433
LeftHandThumb1 -26.253704 0.000000 33.147579
RightShoulder -3.143054 17.498748 -44.376418
RightArm 65.779426 27.985944 108.477744
RightForeArm 22.865800 0.000000 92.155299
RightHand 27.384575 0.000000 -7.789811
RightHandThumb1 -24.326973 -0.000000 -32.862282
LeftUpLeg 10.898327 -0.639541 -1.569593
LeftLeg 2.000998 -0.000000 -0.000000
LeftFoot -19.065630 14.991958 -23.073026
LeftToeBase 16.325594 -0.000000 -0.000000
RightUpLeg 9.466189 -7.973897 0.405628
RightLeg 0.157514 -0.000000 -0.000000
RightFoot -11.606525 -12.536623 13.340803
RightToeBase 9.752621 -0.000000 -0.000000
